PathFileType	4	(x/y/z)	S06_P20_T09
DataRate	CameraRate	NumFrames	NumMarkers	Units	OrigDataRate	OrigDataStartFrame	OrigNumFrames
240	240	4	51	mm	240	167	332
Frame#	Time	Sternum			R.Acromium			L.Acromium			Top.Head			R.ASIS			L.ASIS			R.PSIS			L.PSIS			R.Great.Tro			L.Great.Tro			R.Iliac.Crest			L.Iliac.Crest			V.Sacral			R.Thigh.Upper.Post			R.Thigh.Lower.Ant			R.Thigh.Lower.Post			R.Thigh.Upper.Ant			R.Knee.Lat			R.Knee.Med			R.Shank.Upper.Post			R.Shank.Lower.Ant			R.Shank.Lower.Post			R.Shank.Upper.Ant			R.Ankle.Lat			R.Ankle.Med			R.Heel.Upper			R.Heel.Med			R.Heel.Lat			R.Toe.Lat			R.Toe.Med			R.Toe.Tip			L.Thigh.Upper.Post			L.Thigh.Lower.Ant			L.Thigh.Lower.Post			L.Thigh.Upper.Ant			L.Knee.Lat			L.Knee.Med			L.Shank.Upper.Post			L.Shank.Lower.Ant			L.Shank.Lower.Post			L.Shank.Upper.Ant			L.Ankle.Lat			L.Ankle.Med			L.Heel.Upper			L.Heel.Med			L.Heel.Lat			L.Toe.Lat			L.Toe.Med			L.Toe.Tip			Cervical.Spine			Back			
		X1	Y1	Z1	X2	Y2	Z2	X3	Y3	Z3	X4	Y4	Z4	X5	Y5	Z5	X6	Y6	Z6	X7	Y7	Z7	X8	Y8	Z8	X9	Y9	Z9	X10	Y10	Z10	X11	Y11	Z11	X12	Y12	Z12	X13	Y13	Z13	X14	Y14	Z14	X15	Y15	Z15	X16	Y16	Z16	X17	Y17	Z17	X18	Y18	Z18	X19	Y19	Z19	X20	Y20	Z20	X21	Y21	Z21	X22	Y22	Z22	X23	Y23	Z23	X24	Y24	Z24	X25	Y25	Z25	X26	Y26	Z26	X27	Y27	Z27	X28	Y28	Z28	X29	Y29	Z29	X30	Y30	Z30	X31	Y31	Z31	X32	Y32	Z32	X33	Y33	Z33	X34	Y34	Z34	X35	Y35	Z35	X36	Y36	Z36	X37	Y37	Z37	X38	Y38	Z38	X39	Y39	Z39	X40	Y40	Z40	X41	Y41	Z41	X42	Y42	Z42	X43	Y43	Z43	X44	Y44	Z44	X45	Y45	Z45	X46	Y46	Z46	X47	Y47	Z47	X48	Y48	Z48	X49	Y49	Z49	X50	Y50	Z50	X51	Y51	Z51	

167	0.69167	-385.31	1287.1	318.78	-498.44	1496.6	492.16	-512.29	1501.3	140.09	-438.03	1813.3	314.87	-444.28	1058.7	451.03	-437.12	1050.5	196.29	NaN	NaN	NaN	-639.71	1079.1	271.47	-503.64	988.89	497.44	-522.37	980.84	140.52	-528.78	1133.4	477.61	-507.52	1123.6	157.57	-654.18	1044.1	316.27	-472.81	735.52	480.22	-409.76	661.57	443.18	-477.15	648.98	457.53	-402.97	750.92	462.65	-444.49	539.52	437.63	-441.4	549.25	311.81	-514.1	318	429.5	-462.46	247.69	404.99	-529.06	243.09	412.17	-449.98	321.53	420.88	-516.11	109.62	382.33	-498.98	114.15	294.38	-584.1	73.319	333.43	-576.1	41.519	303.44	-576.64	42.351	368.64	-400.2	38.336	412.07	-373.1	44.403	290.78	-308.16	57.951	336.42	-359.03	756.49	149.06	-288.04	697.75	209.98	-340.85	667.36	159.4	-313.96	789.01	195.82	-339.99	574.23	173.8	-313.68	575.92	296.34	-492.91	414.5	175.63	-474.32	327.54	177.34	-538.52	357.75	189.15	-433.56	385.19	169.18	-581.64	220.43	185.26	-577.6	214.77	276.28	-668.1	224.42	227.97	-681.29	196.48	256.46	-674.21	203.79	195.3	-524.47	108.09	160.03	-515.66	90.347	276.76	-442.06	72.261	228.22	-558.38	1552.7	318.4	-625.49	1282.9	316.86
168	0.69583	-379.87	1287.6	318.74	-492.85	1497.1	492.21	-506.94	1501.8	140.18	-432.41	1813.7	314.85	-438.8	1058.9	451.01	-431.82	1051.2	196.32	NaN	NaN	NaN	-634.31	1079.6	271.48	-498.31	989.18	497.36	-516.85	981.59	140.48	-523.2	1133.8	477.63	-502.18	1124.3	157.64	-648.73	1044.6	316.32	-468.95	735.6	480.12	-406.52	661.26	442.98	-473.96	649.08	457.53	-399.12	750.57	462.36	-442.27	539.32	437.5	-439.12	549.02	311.65	-512.84	318.03	429.45	-461.52	247.53	404.8	-528.14	243.19	412.08	-448.71	321.31	420.78	-515.88	109.7	382.18	-498.86	114.26	294.25	-583.96	73.429	333.39	-576.13	41.583	303.34	-576.56	42.498	368.6	-400.15	38.285	412.08	-373.01	44.138	290.72	-308.09	57.609	336.4	-352.22	758.07	149.47	-281	699.74	210.57	-333.56	669.02	159.9	-307.37	790.87	196.25	-332.15	575.76	174.31	-306.01	577.8	296.71	-481.9	412.59	176.28	-461.42	326.09	177.51	-526.11	354.82	189.76	-421.97	384.65	169.39	-566.07	216.35	185.53	-561.55	210.61	276.52	-652.55	217.92	228.47	-664.83	189.55	256.93	-658.12	197.13	195.8	-505.93	105.61	159.88	-496.28	87.978	276.57	-422.39	71.966	227.78	-552.9	1553.1	318.52	-619.95	1283.3	317.02
169	0.7	-374.42	1288.1	318.69	-487.25	1497.6	492.26	-501.59	1502.2	140.26	-426.8	1814	314.83	-433.29	1059.1	450.98	-426.5	1051.8	196.34	NaN	NaN	NaN	-628.88	1080.1	271.47	-492.95	989.46	497.3	-511.32	982.28	140.44	-517.61	1134.2	477.64	-496.84	1124.9	157.7	-643.27	1045.1	316.36	-465.12	735.67	480.03	-403.31	660.94	442.78	-470.78	649.18	457.54	-395.29	750.21	462.08	-440.08	539.13	437.37	-436.91	548.79	311.48	-511.59	318.06	429.4	-460.62	247.38	404.61	-527.24	243.3	412	-447.46	321.09	420.68	-515.66	109.77	382.03	-498.76	114.38	294.11	-583.82	73.536	333.34	-576.15	41.649	303.24	-576.48	42.643	368.57	-400.1	38.229	412.08	-372.93	43.893	290.67	-308.01	57.285	336.39	-345.54	759.52	149.85	-274.1	701.58	211.09	-326.47	670.55	160.39	-300.84	792.58	196.63	-324.52	577.18	174.81	-298.53	579.58	297.04	-470.9	410.52	176.95	-448.49	324.56	177.71	-513.65	351.73	190.41	-410.4	384.01	169.61	-550.33	212.16	185.87	-545.27	206.38	276.83	-636.75	211.28	229.07	-648.07	182.5	257.51	-641.77	190.34	196.41	-487.24	103.12	159.77	-476.68	85.643	276.4	-402.58	71.715	227.34	-547.41	1553.5	318.64	-614.4	1283.7	317.17
170	0.70417	-368.95	1288.6	318.64	-481.65	1498	492.31	-496.24	1502.7	140.34	-421.2	1814.4	314.79	-427.77	1059.3	450.92	-421.16	1052.3	196.33	NaN	NaN	NaN	-623.43	1080.6	271.46	-487.55	989.72	497.24	-505.78	982.92	140.39	-512	1134.6	477.64	-491.48	1125.4	157.75	-637.78	1045.6	316.41	-461.31	735.74	479.94	-400.12	660.62	442.58	-467.62	649.28	457.56	-391.48	749.83	461.8	-437.93	538.93	437.25	-434.76	548.57	311.31	-510.37	318.08	429.36	-459.74	247.23	404.42	-526.35	243.4	411.92	-446.23	320.87	420.59	-515.43	109.84	381.87	-498.69	114.51	293.96	-583.69	73.642	333.29	-576.17	41.719	303.15	-576.41	42.788	368.54	-400.06	38.17	412.08	-372.86	43.668	290.62	-307.93	56.979	336.4	-338.99	760.86	150.22	-267.34	703.26	211.57	-319.57	671.94	160.87	-294.39	794.14	196.95	-317.09	578.47	175.28	-291.23	581.24	297.33	-459.92	408.3	177.62	-435.52	322.93	177.93	-501.15	348.5	191.09	-398.87	383.26	169.85	-534.42	207.88	186.26	-528.78	202.09	277.18	-620.69	204.55	229.78	-631.01	175.39	258.2	-625.16	183.45	197.13	-468.41	100.62	159.7	-456.85	83.368	276.27	-382.65	71.532	226.9	-541.92	1553.9	318.76	-608.84	1284	317.33
